<svg width="48" height="48" viewBox="0 0 48 48" fill="none" xmlns="http://www.w3.org/2000/svg">
<path d="M38.894 10.6899C38.4927 9.32906 37.6598 8.13565 36.5208 7.28965C35.3819 6.44366 33.9987 5.99097 32.58 5.99988C30.9357 6.00135 29.3515 6.61782 28.1387 7.72809C26.9259 8.83837 26.1723 10.3621 26.026 11.9999H21.976C21.8277 10.3604 21.0716 8.83573 19.8562 7.72547C18.6408 6.61521 17.0541 5.99968 15.408 5.99988C13.9912 5.99293 12.6104 6.44657 11.4738 7.29247C10.3371 8.13836 9.50615 9.33071 9.106 10.6899L4.084 27.4259C4.02899 27.6123 4.0007 27.8055 4 27.9999V29.9999C4.00318 32.6514 5.05804 35.1934 6.93315 37.0682C8.80826 38.9429 11.3505 39.9972 14.002 39.9999C15.9454 39.9966 17.8457 39.4274 19.4709 38.3619C21.0962 37.2964 22.376 35.7807 23.154 33.9999H24.846C25.624 35.7807 26.9038 37.2964 28.5291 38.3619C30.1543 39.4274 32.0546 39.9966 33.998 39.9999C36.6499 39.9972 39.1924 38.9426 41.0676 37.0674C42.9427 35.1923 43.9974 32.6498 44 29.9979V27.9999C44 27.8039 43.97 27.6119 43.916 27.4259L38.894 10.6899ZM14.002 35.9999C12.4112 35.9978 10.8861 35.365 9.76099 34.2403C8.63591 33.1156 8.00265 31.5907 8 29.9999C8 29.8479 8.034 29.7059 8.044 29.5559C8.15343 28.0495 8.82789 26.64 9.93233 25.6098C11.0368 24.5795 12.4896 24.0045 14 23.9999C15.5913 23.9999 17.1174 24.632 18.2426 25.7572C19.3679 26.8825 20 28.4086 20 29.9999V30.0179C19.9931 31.6051 19.3585 33.125 18.2347 34.2459C17.1109 35.3667 15.5892 35.9973 14.002 35.9999ZM33.998 35.9999C32.4108 35.9973 30.8891 35.3667 29.7653 34.2459C28.6415 33.125 28.0069 31.6051 28 30.0179V29.9999C27.9999 29.212 28.1549 28.4317 28.4563 27.7037C28.7577 26.9757 29.1996 26.3142 29.7567 25.757C30.8817 24.6315 32.4077 23.9992 33.999 23.9989C35.5903 23.9986 37.1165 24.6305 38.2419 25.7555C39.3673 26.8806 39.9997 28.4066 40 29.9979C39.9979 31.5891 39.3649 33.1145 38.2397 34.2396C37.1146 35.3647 35.5892 35.9978 33.998 35.9999Z" fill="#EEEEEE"/>
</svg>
