<svg width="48" height="48" viewBox="0 0 48 48" fill="none" xmlns="http://www.w3.org/2000/svg">
<path d="M4.872 10.294C4 11.286 4 12.99 4 16.394V35.182C4 37.594 4 38.8 4.63 39.708C5.258 40.616 6.358 40.998 8.558 41.76L11.146 42.658C12.548 43.144 13.626 43.518 14.532 43.758C15.124 43.916 15.666 43.452 15.666 42.84V12.54C15.6591 12.2972 15.5719 12.0634 15.4182 11.8752C15.2644 11.6871 15.0527 11.5552 14.816 11.5C14.038 11.302 13.102 10.978 11.82 10.534C8.714 9.45604 7.16 8.91804 5.98 9.46404C5.55675 9.66029 5.17931 9.94303 4.872 10.294ZM25.24 6.96204L22.168 9.09204C21.058 9.86204 20.242 10.428 19.548 10.83C19.3845 10.9214 19.2478 11.0541 19.1516 11.2148C19.0555 11.3756 19.0032 11.5588 19 11.746V41.84C19 42.58 19.768 43.044 20.392 42.644C21.062 42.216 21.83 41.684 22.76 41.04L25.832 38.91C26.942 38.14 27.758 37.574 28.452 37.172C28.6155 37.0807 28.7522 36.948 28.8484 36.7873C28.9445 36.6265 28.9968 36.4433 29 36.256V6.16004C29 5.41804 28.232 4.95604 27.608 5.35404C26.938 5.78404 26.17 6.31604 25.24 6.96204ZM39.44 6.24004L36.854 5.34404C35.452 4.85804 34.374 4.48404 33.468 4.24404C32.876 4.08604 32.334 4.55004 32.334 5.16204V35.462C32.3409 35.7049 32.4281 35.9387 32.5818 36.1268C32.7356 36.315 32.9473 36.4469 33.184 36.502C33.962 36.7 34.898 37.022 36.18 37.468C39.286 38.546 40.84 39.084 42.02 38.538C42.4432 38.3418 42.8207 38.0591 43.128 37.708C44 36.716 44 35.012 44 31.608V12.82C44 10.408 44 9.20004 43.37 8.29404C42.742 7.38604 41.642 7.00404 39.442 6.24204L39.44 6.24004Z" fill="#EEEEEE"/>
</svg>
