<svg width="48" height="48" viewBox="0 0 48 48" fill="none" xmlns="http://www.w3.org/2000/svg">
<path d="M14.752 40.026C14.5816 39.9272 14.3933 39.863 14.1981 39.837C14.0028 39.811 13.8043 39.8237 13.6139 39.8744C13.4236 39.9251 13.2451 40.0128 13.0886 40.1325C12.9321 40.2522 12.8008 40.4015 12.702 40.572C12.6033 40.7425 12.5391 40.9307 12.513 41.126C12.487 41.3212 12.4998 41.5197 12.5505 41.7101C12.6012 41.9004 12.6889 42.0789 12.8085 42.2354C12.9282 42.3919 13.0776 42.5232 13.248 42.622L14.752 40.026ZM5.37802 34.75C5.47266 34.9277 5.60212 35.0846 5.75867 35.2112C5.91522 35.3378 6.09567 35.4316 6.28925 35.4871C6.48283 35.5425 6.68558 35.5583 6.88542 35.5337C7.08527 35.5091 7.27811 35.4445 7.45245 35.3437C7.62679 35.243 7.77907 35.1082 7.9002 34.9473C8.02133 34.7865 8.10884 34.6029 8.15752 34.4075C8.20619 34.2122 8.21503 34.009 8.1835 33.8101C8.15198 33.6112 8.08073 33.4207 7.97402 33.25L5.37802 34.75ZM42.5 24C42.5 28.9065 40.5509 33.612 37.0815 37.0815C33.6121 40.5509 28.9065 42.5 24 42.5V45.5C35.874 45.5 45.5 35.874 45.5 24H42.5ZM5.50002 24C5.50002 19.0935 7.44912 14.3879 10.9185 10.9185C14.388 7.4491 19.0935 5.5 24 5.5V2.5C12.126 2.5 2.50002 12.126 2.50002 24H5.50002ZM31 28.5C27.95 28.5 25.025 27.2884 22.8683 25.1317C20.7116 22.9751 19.5 20.05 19.5 17H16.5C16.5 20.8456 18.0277 24.5338 20.747 27.253C23.4663 29.9723 27.1544 31.5 31 31.5V28.5ZM40.85 22.938C39.8272 24.6358 38.3827 26.0403 36.6568 27.0149C34.9308 27.9894 32.9821 28.5011 31 28.5V31.5C33.4989 31.5013 35.9557 30.8566 38.1319 29.6283C40.3081 28.4 42.1297 26.63 43.42 24.49L40.85 22.938ZM19.5 17C19.4992 15.0179 20.0109 13.0693 20.9854 11.3434C21.96 9.6175 23.3643 8.17293 25.062 7.15L23.51 4.582C21.3702 5.87198 19.6002 7.69329 18.372 9.86913C17.1437 12.045 16.4988 14.5014 16.5 17H19.5ZM24 5.5C23.7972 5.49522 23.6045 5.41038 23.464 5.264C23.3781 5.18047 23.3207 5.072 23.3 4.954C23.292 4.892 23.296 4.712 23.51 4.582L25.062 7.15C26.068 6.542 26.392 5.428 26.274 4.552C26.15 3.642 25.434 2.5 24 2.5V5.5ZM43.42 24.49C43.288 24.704 43.108 24.708 43.046 24.7C42.928 24.6793 42.8196 24.6219 42.736 24.536C42.5896 24.3955 42.5048 24.2028 42.5 24H45.5C45.5 22.566 44.358 21.85 43.448 21.726C42.572 21.608 41.458 21.932 40.85 22.938L43.42 24.49ZM24 42.5C20.7531 42.5054 17.5626 41.6518 14.752 40.026L13.248 42.622C16.5156 44.5126 20.225 45.5054 24 45.5V42.5ZM7.97402 33.25C6.34784 30.4389 5.4943 27.2476 5.50002 24H2.50002C2.49455 27.7744 3.48746 31.4832 5.37802 34.75L7.97402 33.25Z" fill="#EEEEEE"/>
</svg>
