<svg width="48" height="48" viewBox="0 0 48 48" fill="none" xmlns="http://www.w3.org/2000/svg">
<path d="M24 4V6M24 42V44M44 24H42M6 24H4M38.14 9.86L37.356 10.646M10.644 37.356L9.858 38.142M38.14 38.14L37.356 37.354M10.644 10.644L9.858 9.858M12.682 20C11.7755 22.5662 11.7683 25.3642 12.6615 27.935C13.5546 30.5059 15.2952 32.6967 17.5974 34.1481C19.8997 35.5994 22.6269 36.2251 25.3316 35.9224C28.0363 35.6196 30.5577 34.4065 32.4821 32.4821C34.4065 30.5577 35.6196 28.0363 35.9224 25.3316C36.2251 22.6269 35.5994 19.8997 34.1481 17.5974C32.6967 15.2952 30.5059 13.5546 27.935 12.6615C25.3642 11.7683 22.5662 11.7755 20 12.682" stroke="black" stroke-width="3" stroke-linecap="round"/>
</svg>
