<svg width="48" height="48" viewBox="0 0 48 48" fill="none" xmlns="http://www.w3.org/2000/svg">
<path d="M25.7362 22.2525L22.26 21.6825C22.26 21.6825 22.0912 36.2887 22.2375 38.0212C22.2375 38.025 23.1337 43.3012 23.355 45.9225C23.3812 46.2487 23.655 46.5037 23.985 46.5037C24.315 46.5037 24.5887 46.2525 24.6187 45.9225L25.74 38.0212C25.7325 35.64 25.7362 22.2525 25.7362 22.2525Z" fill="#82AEC0"/>
<path d="M25.7213 22.4138C25.7213 22.4138 25.7363 24.6263 25.7363 25.1775C25.7363 25.7288 25.245 26.6138 23.9738 26.6138C22.7025 26.6138 22.2338 25.7475 22.2338 25.215C22.2338 24.6825 22.2375 22.4213 22.2375 22.4213L25.7213 22.4138Z" fill="#2F7889"/>
<path d="M13.395 12.135V12.6675C13.7137 17.9325 17.8612 22.2375 23.1262 22.7137C23.445 22.7662 23.7112 22.7662 24.03 22.7662C24.3487 22.7662 24.615 22.7662 24.8812 22.7137C30.1462 22.2337 34.29 18.0337 34.6087 12.6637V12.1312C34.6612 6.285 29.8762 1.5 24.0262 1.5C18.1762 1.5 13.395 6.2325 13.395 12.135Z" fill="#D90F00"/>
<path d="M25.1138 3.28878C26.1113 4.27128 25.8525 5.41128 25.3088 6.39753C24.6975 7.50753 23.2763 8.06628 21.18 11.0888C19.6088 13.3538 16.275 12.3188 15.8063 10.5225C15.4463 9.14253 15.735 7.69878 16.4813 6.50628C19.3125 1.97628 24.1163 2.30628 25.1138 3.28878Z" fill="#EC918B"/>
</svg>
